# xmcd
#
# Track frame offsets:
#	150
#	20951
#	36479
#	62341
#	98499
#	140229
#	174893
#	212513
#	253312
#	293186
#	314127
#
# Disc length: 4514 seconds
#
# Revision: 2
# Processed by: cddbd v1.5.2PL0 Copyright (c) Steve Scherf et al.
# Submitted via: EasyCDDAExtractor 11.0.2.1
#
DISCID=a911a00b
DTITLE=YOGACHARYA  SWAMI SADHANANANDA GIRI  -  SADHAN SANGEET  VOL.3
DYEAR=2006
DGENRE=
TTITLE0=01 GURU PRANAM  -GURU MADHYE STHITANG
TTITLE1=02 DEVI PRANAM - OM SARBA MANGALA MANGYALE 
TTITLE2=03 MATRI SANGEET - AYI  DEKHI MON
TTITLE3=04 (O MON ) JADER TARE ROILI BHULE
TTITLE4=05 PANCAHA "MAU" KARE TANTRIKACHARE
TTITLE5=06 EKBAAR DAAK NA RE MON MAA BOLE
TTITLE6=07 HARE KRISHNA  HARE KRISHNA 
TTITLE7=08 KATOTA ASHRU JHARECHHE 
TTITLE8=09 SHYAM SOHAGINI RADHYE
TTITLE9=10 DAO HEY SUMATI
TTITLE10=11 GURUR CHARAN KARBE SMARAN 
EXTD=
EXTT0=
EXTT1=
EXTT2=
EXTT3=
EXTT4=
EXTT5=
EXTT6=
EXTT7=
EXTT8=
EXTT9=
EXTT10=
PLAYORDER=
